<?xml version="1.0" encoding="UTF-8" standalone="no"?><!DOCTYPE svg PUBLIC "-//W3C//DTD SVG 1.1//EN" "http://www.w3.org/Graphics/SVG/1.1/DTD/svg11.dtd"><svg width="100%" height="100%" viewBox="0 0 1884 1747" version="1.1" xmlns="http://www.w3.org/2000/svg" xmlns:xlink="http://www.w3.org/1999/xlink" xml:space="preserve" xmlns:serif="http://www.serif.com/" style="fill-rule:evenodd;clip-rule:evenodd;stroke-linecap:round;stroke-linejoin:round;stroke-miterlimit:1.5;"><g id="Layer1"><circle cx="877.645" cy="867.847" r="790.771" style="fill:#fff;stroke:url(#_Linear1);stroke-width:44.46px;"/></g><g id="Layer3"><path d="M838.363,833.062c411.364,52.503 733.344,-15.262 698.866,45.601c-77.795,137.324 -189.982,369.053 -530.416,406.9c-308.532,34.301 -566.055,-48.886 -598.717,-205.946c-28.188,-135.545 129.032,-285.002 430.267,-246.555Z" style="fill:none;stroke:#63357c;stroke-width:44.46px;"/><path d="M1024.66,763.081c293.146,5.133 521.831,-52.317 497.72,-15.897c-54.401,82.176 -132.616,219.706 -374.645,261.362c-219.348,37.753 -403.219,6.128 -427.571,-80.609c-21.016,-74.855 89.829,-168.614 304.496,-164.856Z" style="fill:none;stroke:#63357c;stroke-width:44.46px;"/><path d="M1024.66,763.081c293.146,5.133 521.831,-52.317 497.72,-15.897c-54.401,82.176 -132.616,219.706 -374.645,261.362c-219.348,37.753 -403.219,6.128 -427.571,-80.609c-21.016,-74.855 89.829,-168.614 304.496,-164.856Z" style="fill:none;stroke:url(#_Linear2);stroke-width:44.46px;"/><path d="M601.991,499.875c98.667,-0 140.488,76.606 170.094,166.584c33.814,102.765 15.064,180.515 -131.329,163c-16.436,-1.966 -38.258,-2.67 -81.571,-32.77c-31.491,-21.884 -81.352,-70.151 -114.607,-92.896c-80.884,-55.322 58.746,-203.918 157.413,-203.918Z" style="fill:none;stroke:url(#_Linear3);stroke-width:44.46px;"/><path d="M838.363,833.062c411.364,52.503 733.344,-15.262 698.866,45.601c-77.795,137.324 -189.982,369.053 -530.416,406.9c-308.532,34.301 -566.055,-48.886 -598.717,-205.946c-28.188,-135.545 129.032,-285.002 430.267,-246.555Z" style="fill:none;stroke:url(#_Linear4);stroke-width:44.46px;"/><path d="M290.651,768.594c61.121,-54.407 80.997,-81.281 83.575,-63.276c7.279,50.83 100.257,87.109 94.415,92.426c-13.534,12.317 -103.918,44.104 -139.255,59.5c-119.52,52.073 -200.922,40.473 -173.039,10.508c12.867,-13.828 80.314,-51.098 134.304,-99.158Z" style="fill:none;stroke:url(#_Linear5);stroke-width:44.46px;"/><path d="M1016.49,516.748c-24.681,-11.105 -102.663,29.062 -114.751,-0c-18.656,-44.851 89.637,-196.761 60.098,-184.591c-110.892,45.686 -264.299,166.816 -175.765,-44.126l-137.865,149.555c118.653,27.408 143.625,88.502 190.708,204.726l177.575,-125.564Z" style="fill:none;stroke:url(#_Linear6);stroke-width:44.46px;"/><path d="M570.856,603.208l33.633,5.077l-28.982,17.806l-33.633,-5.077l28.982,-17.806Z" style="fill:none;stroke:url(#_Linear7);stroke-width:44.46px;"/></g><defs><linearGradient id="_Linear1" x1="0" y1="0" x2="1" y2="0" gradientUnits="userSpaceOnUse" gradientTransform="matrix(378.149,-307.122,307.122,378.149,1511.47,1345.96)"><stop offset="0" style="stop-color:#e3a125;stop-opacity:1"/><stop offset="1" style="stop-color:#8e6312;stop-opacity:1"/></linearGradient><linearGradient id="_Linear2" x1="0" y1="0" x2="1" y2="0" gradientUnits="userSpaceOnUse" gradientTransform="matrix(808.939,-162.006,162.006,808.939,724.568,950.946)"><stop offset="0" style="stop-color:#63357c;stop-opacity:1"/><stop offset="1" style="stop-color:#a069be;stop-opacity:1"/></linearGradient><linearGradient id="_Linear3" x1="0" y1="0" x2="1" y2="0" gradientUnits="userSpaceOnUse" gradientTransform="matrix(366.127,0,0,366.127,420.374,665.903)"><stop offset="0" style="stop-color:#63357c;stop-opacity:1"/><stop offset="1" style="stop-color:#a069be;stop-opacity:1"/></linearGradient><linearGradient id="_Linear4" x1="0" y1="0" x2="1" y2="0" gradientUnits="userSpaceOnUse" gradientTransform="matrix(1138.24,-166.792,166.792,1138.24,413.878,1120.98)"><stop offset="0" style="stop-color:#63357c;stop-opacity:1"/><stop offset="1" style="stop-color:#a069be;stop-opacity:1"/></linearGradient><linearGradient id="_Linear5" x1="0" y1="0" x2="1" y2="0" gradientUnits="userSpaceOnUse" gradientTransform="matrix(303.923,-119.266,119.266,303.923,142.795,859.711)"><stop offset="0" style="stop-color:#63357c;stop-opacity:1"/><stop offset="1" style="stop-color:#a069be;stop-opacity:1"/></linearGradient><linearGradient id="_Linear6" x1="0" y1="0" x2="1" y2="0" gradientUnits="userSpaceOnUse" gradientTransform="matrix(234.379,-194.445,194.445,234.379,756.576,538.963)"><stop offset="0" style="stop-color:#e3a125;stop-opacity:1"/><stop offset="1" style="stop-color:#8e6312;stop-opacity:1"/></linearGradient><linearGradient id="_Linear7" x1="0" y1="0" x2="1" y2="0" gradientUnits="userSpaceOnUse" gradientTransform="matrix(62.6149,-12.7287,12.7287,62.6149,541.874,621.014)"><stop offset="0" style="stop-color:#63357c;stop-opacity:1"/><stop offset="1" style="stop-color:#a069be;stop-opacity:1"/></linearGradient></defs></svg>